<svg width="149" height="128" viewBox="0 0 149 128" fill="none" xmlns="http://www.w3.org/2000/svg">
<path d="M81.5098 114.71C72.6581 123.57 61.286 128 47.3937 128C33.5014 128 22.1294 123.57 13.2776 114.71C4.42587 105.734 0 94.2514 0 80.2623V47.7377C0 33.7486 4.42587 22.3242 13.2776 13.4645C22.1294 4.48816 33.5014 0 47.3937 0C61.286 0 72.6581 4.48816 81.5098 13.4645C90.4845 22.3242 94.9718 33.7486 94.9718 47.7377V80.2623C94.9718 94.2514 90.4845 105.734 81.5098 114.71ZM47.3937 109.115C55.6307 109.115 62.2081 106.55 67.1257 101.421C72.1663 96.2914 74.6866 89.2386 74.6866 80.2623V47.7377C74.6866 38.7614 72.1663 31.7086 67.1257 26.5792C62.2081 21.4499 55.6307 18.8853 47.3937 18.8853C39.2796 18.8853 32.7023 21.4499 27.6617 26.5792C22.7441 31.7086 20.2852 38.7614 20.2852 47.7377V80.2623C20.2852 89.2386 22.7441 96.2914 27.6617 101.421C32.7023 106.55 39.2796 109.115 47.3937 109.115Z" fill="#26292E"/>
<path d="M128.715 126.251V21.1585H102.344L117.834 2.09836H149V126.251H128.715Z" fill="#26292E"/>
</svg>
