<svg width="188" height="129" viewBox="0 0 188 129" fill="none" xmlns="http://www.w3.org/2000/svg">
<path d="M78.15 115.45C69.75 124.317 58.9583 128.75 45.775 128.75C32.5917 128.75 21.8 124.317 13.4 115.45C5 106.467 0.8 94.975 0.8 80.975V48.425C0.8 34.425 5 22.9917 13.4 14.125C21.8 5.14166 32.5917 0.649989 45.775 0.649989C58.9583 0.649989 69.75 5.14166 78.15 14.125C86.6667 22.9917 90.925 34.425 90.925 48.425V80.975C90.925 94.975 86.6667 106.467 78.15 115.45ZM45.775 109.85C53.5917 109.85 59.8333 107.283 64.5 102.15C69.2833 97.0167 71.675 89.9583 71.675 80.975V48.425C71.675 39.4417 69.2833 32.3833 64.5 27.25C59.8333 22.1167 53.5917 19.55 45.775 19.55C38.075 19.55 31.8333 22.1167 27.05 27.25C22.3833 32.3833 20.05 39.4417 20.05 48.425V80.975C20.05 89.9583 22.3833 97.0167 27.05 102.15C31.8333 107.283 38.075 109.85 45.775 109.85ZM187.346 108.1V127H105.096V120C105.096 115.567 105.738 111.367 107.021 107.4C108.421 103.317 109.879 99.9333 111.396 97.25C112.913 94.5667 115.421 91.5917 118.921 88.325C122.421 84.9417 125.104 82.55 126.971 81.15C128.838 79.6333 132.104 77.1833 136.771 73.8C141.554 70.4167 144.588 68.2583 145.871 67.325C153.221 61.9583 158.529 57.2333 161.796 53.15C165.063 49.0667 166.696 44.1667 166.696 38.45C166.696 32.7333 164.946 28.1833 161.446 24.8C157.946 21.3 153.104 19.55 146.921 19.55C140.504 19.55 135.196 21.475 130.996 25.325C126.796 29.0583 124.638 34.1917 124.521 40.725H105.096C105.096 28.9417 109.063 19.3167 116.996 11.85C125.046 4.38332 135.079 0.649989 147.096 0.649989C158.179 0.649989 167.454 3.91666 174.921 10.45C182.388 16.9833 186.121 26.1417 186.121 37.925C186.121 47.2583 183.963 55.1333 179.646 61.55C175.446 67.85 168.446 74.5 158.646 81.5C157.129 82.6667 154.329 84.65 150.246 87.45C146.163 90.25 143.129 92.4083 141.146 93.925C139.279 95.4417 137.238 97.5417 135.021 100.225C132.804 102.792 131.288 105.417 130.471 108.1H187.346Z" fill="#26292E"/>
</svg>
