<svg width="1220" height="237" viewBox="0 0 1220 237" fill="none" xmlns="http://www.w3.org/2000/svg">
<path d="M0 233.125L97.7737 3.87467H144.088L241.861 233.125H188.472L168.209 184.692H73.6519L53.3896 233.125H0ZM120.931 71.3583L91.9845 140.134H149.555L120.931 71.3583Z" fill="#FCEB41"/>
<path d="M292.999 233.125V3.87467H378.873C397.527 3.87467 413.501 10.5477 426.795 23.8938C440.089 37.0245 446.736 53.0613 446.736 72.0041C446.736 87.2875 441.268 100.418 430.333 111.396C440.196 116.563 448.022 123.881 453.811 133.353C459.815 142.824 462.817 153.587 462.817 165.642C462.817 184.584 456.17 200.621 442.876 213.752C429.582 226.668 413.072 233.125 393.346 233.125H292.999ZM344.138 185.984H389.165C396.026 185.984 401.708 183.831 406.211 179.526C410.714 175.005 412.965 169.516 412.965 163.059C412.965 156.601 410.607 151.219 405.889 146.914C401.387 142.394 395.705 140.134 388.843 140.134H344.138V185.984ZM344.138 96.5436H373.084C379.945 96.5436 385.627 94.391 390.13 90.0858C394.633 85.7807 396.884 80.3992 396.884 73.9414C396.884 67.4837 394.633 61.9946 390.13 57.4741C385.627 52.9537 379.945 50.6935 373.084 50.6935H344.138V96.5436Z" fill="#FCEB41"/>
<path d="M582.385 166.933C595.465 180.495 611.224 187.275 629.664 187.275C648.104 187.275 663.756 180.495 676.621 166.933C689.486 153.372 695.919 137.228 695.919 118.5C695.919 99.7725 689.486 83.6281 676.621 70.0668C663.756 56.5055 648.104 49.7248 629.664 49.7248C611.224 49.7248 595.465 56.5055 582.385 70.0668C569.521 83.6281 563.088 99.7725 563.088 118.5C563.088 137.228 569.521 153.372 582.385 166.933ZM712.965 202.128C690.022 225.376 662.255 237 629.664 237C597.073 237 569.199 225.484 546.042 202.451C523.1 179.203 511.628 151.219 511.628 118.5C511.628 85.7807 523.1 57.9046 546.042 34.8719C569.199 11.624 597.073 0 629.664 0C662.255 0 690.022 11.624 712.965 34.8719C736.122 58.1199 747.7 85.9959 747.7 118.5C747.7 151.004 736.122 178.88 712.965 202.128Z" fill="#FCEB41"/>
<path d="M969.206 211.169C951.838 228.39 929.325 237 901.665 237C874.005 237 851.385 228.39 833.802 211.169C816.435 193.733 807.751 170.808 807.751 142.394V3.87467H858.889V143.04C858.889 156.601 862.749 167.364 870.468 175.328C878.401 183.293 888.8 187.275 901.665 187.275C914.53 187.275 924.822 183.293 932.541 175.328C940.474 167.364 944.441 156.601 944.441 143.04V3.87467H995.579V142.394C995.579 170.808 986.788 193.733 969.206 211.169Z" fill="#FCEB41"/>
<path d="M1109.68 233.125V52.9537H1051.47V3.87467H1220V52.9537H1161.14V233.125H1109.68Z" fill="#FCEB41"/>
</svg>
