<svg width="321" height="189" viewBox="0 0 321 189" fill="none" xmlns="http://www.w3.org/2000/svg">
<path d="M0.0539975 185L77.878 3.23999H114.742L192.566 185H150.07L133.942 146.6H58.678L42.55 185H0.0539975ZM96.31 56.744L73.27 111.272H119.094L96.31 56.744ZM255.662 188.072C241.326 188.072 228.27 185.256 216.494 179.624C204.889 173.821 195.502 165.8 188.334 155.56L219.566 129.192C224.003 135.507 229.635 140.541 236.462 144.296C243.459 148.051 250.371 149.928 257.198 149.928C263.854 149.928 269.145 148.563 273.07 145.832C277.166 142.931 279.214 139.261 279.214 134.824C279.214 130.216 277.251 126.205 273.326 122.792C269.401 119.379 262.915 116.136 253.87 113.064L241.07 108.712C210.521 98.472 195.246 80.9787 195.246 56.232C195.246 38.9947 201.049 25.3413 212.654 15.272C224.43 5.20265 239.534 0.167984 257.966 0.167984C281.518 0.167984 301.059 8.53065 316.59 25.256L289.966 53.416C281.603 43.3467 271.107 38.312 258.478 38.312C252.505 38.312 247.299 39.5067 242.862 41.896C238.595 44.2853 236.462 47.6987 236.462 52.136C236.462 56.744 238.51 60.4987 242.606 63.4C246.702 66.1307 254.041 69.3733 264.622 73.128L277.422 77.736C306.435 88.1467 320.857 106.237 320.686 132.008C320.686 148.563 314.542 162.045 302.254 172.456C290.137 182.867 274.606 188.072 255.662 188.072Z" fill="#FCEB41"/>
</svg>
