<svg width="334" height="174" viewBox="0 0 334 174" fill="none" xmlns="http://www.w3.org/2000/svg">
<path d="M19 153V96.2H31.72V118.44H54.6V96.2H67.32V153H54.6V130.52H31.72V153H19ZM118.592 147.56C114.273 151.827 108.673 153.96 101.793 153.96C94.9125 153.96 89.2858 151.827 84.9125 147.56C80.5925 143.24 78.4325 137.56 78.4325 130.52V96.2H91.1525V130.68C91.1525 134.04 92.1125 136.707 94.0325 138.68C96.0058 140.653 98.5925 141.64 101.793 141.64C104.993 141.64 107.553 140.653 109.472 138.68C111.446 136.707 112.432 134.04 112.432 130.68V96.2H125.153V130.52C125.153 137.56 122.966 143.24 118.592 147.56ZM136.254 96.2H147.854L165.534 120.68L183.374 96.2H194.974V153H182.174V118.04L165.614 140.92L148.974 117.96V153H136.254V96.2ZM200.637 153L224.957 96.2H236.478L260.798 153H247.518L242.477 141H218.957L213.917 153H200.637ZM230.718 112.92L223.518 129.96H237.838L230.718 112.92ZM317.837 153H306.877L279.197 117.88V153H266.477V96.2H277.437L305.037 131.32V96.2H317.837V153Z" fill="#FCEB41"/>
<path d="M34.5466 80V23.2H55.9066C60.5466 23.2 64.5199 24.8533 67.8266 28.16C71.1332 31.4133 72.7866 35.3867 72.7866 40.08C72.7866 43.8667 71.4266 47.12 68.7066 49.84C71.1599 51.12 73.1066 52.9333 74.5466 55.28C76.0399 57.6267 76.7866 60.2933 76.7866 63.28C76.7866 67.9733 75.1332 71.9467 71.8266 75.2C68.5199 78.4 64.4132 80 59.5066 80H34.5466ZM47.2666 68.32H58.4666C60.1732 68.32 61.5866 67.7867 62.7066 66.72C63.8266 65.6 64.3866 64.24 64.3866 62.64C64.3866 61.04 63.7999 59.7067 62.6266 58.64C61.5066 57.52 60.0932 56.96 58.3866 56.96H47.2666V68.32ZM47.2666 46.16H54.4666C56.1732 46.16 57.5866 45.6267 58.7066 44.56C59.8266 43.4933 60.3866 42.16 60.3866 40.56C60.3866 38.96 59.8266 37.6 58.7066 36.48C57.5866 35.36 56.1732 34.8 54.4666 34.8H47.2666V46.16ZM93.1678 80V23.2H129.168V35.36H105.888V45.52H124.368V57.68H105.888V67.84H129.168V80H93.1678ZM146.711 80V23.2H159.431V80H146.711ZM230.598 80H219.638L191.958 44.88V80H179.238V23.2H190.198L217.798 58.32V23.2H230.598V80ZM278.198 80.96C269.398 80.96 262.038 78.16 256.118 72.56C250.251 66.9067 247.318 59.92 247.318 51.6C247.318 43.3867 250.118 36.4533 255.718 30.8C261.371 25.0933 268.544 22.24 277.238 22.24C286.998 22.24 294.758 25.4667 300.518 31.92L291.558 40.64C287.771 36.5867 282.998 34.56 277.238 34.56C272.224 34.56 268.118 36.24 264.918 39.6C261.718 42.9067 260.118 46.9067 260.118 51.6C260.118 56.5067 261.744 60.5867 264.998 63.84C268.251 67.04 272.598 68.64 278.038 68.64C283.051 68.64 286.731 67.7333 289.078 65.92V57.52H277.958V45.6H301.478V72.56C299.024 75.3333 295.744 77.44 291.638 78.88C287.531 80.2667 283.051 80.96 278.198 80.96Z" fill="#FCEB41"/>
</svg>
