<svg width="310" height="364" viewBox="0 0 310 364" fill="none" xmlns="http://www.w3.org/2000/svg">
<path d="M0.400002 364V0.47998H124.304C175.504 0.47998 219.195 18.2293 255.376 53.728C291.557 89.2267 309.648 132.064 309.648 182.24C309.648 232.416 291.557 275.253 255.376 310.752C219.195 346.251 175.504 364 124.304 364H0.400002ZM81.808 289.248H124.304C154.341 289.248 178.917 279.008 198.032 258.528C217.488 237.707 227.216 212.277 227.216 182.24C227.216 152.203 217.488 126.944 198.032 106.464C178.917 85.6427 154.341 75.232 124.304 75.232H81.808V289.248Z" fill="#FCEB41"/>
</svg>
