<svg width="300" height="58" viewBox="0 0 300 58" fill="none" xmlns="http://www.w3.org/2000/svg">
<path d="M0.852152 57V1.62H19.7282C27.5282 1.62 34.1842 4.324 39.6962 9.732C45.2082 15.14 47.9642 21.666 47.9642 29.31C47.9642 36.954 45.2082 43.48 39.6962 48.888C34.1842 54.296 27.5282 57 19.7282 57H0.852152ZM13.2542 45.612H19.7282C24.3042 45.612 28.0482 44.052 30.9602 40.932C33.9242 37.76 35.4062 33.886 35.4062 29.31C35.4062 24.734 33.9242 20.886 30.9602 17.766C28.0482 14.594 24.3042 13.008 19.7282 13.008H13.2542V45.612ZM60.51 57V1.62H95.61V13.476H72.912V23.382H90.93V35.238H72.912V45.144H95.61V57H60.51ZM125.507 57.936C121.139 57.936 117.161 57.078 113.573 55.362C110.037 53.594 107.177 51.15 104.993 48.03L114.509 39.996C115.861 41.92 117.577 43.454 119.657 44.598C121.789 45.742 123.895 46.314 125.975 46.314C128.003 46.314 129.615 45.898 130.811 45.066C132.059 44.182 132.683 43.064 132.683 41.712C132.683 40.308 132.085 39.086 130.889 38.046C129.693 37.006 127.717 36.018 124.961 35.082L121.061 33.756C111.753 30.636 107.099 25.306 107.099 17.766C107.099 12.514 108.867 8.354 112.403 5.286C115.991 2.218 120.593 0.683995 126.209 0.683995C133.385 0.683995 139.339 3.232 144.071 8.328L135.959 16.908C133.411 13.84 130.213 12.306 126.365 12.306C124.545 12.306 122.959 12.67 121.607 13.398C120.307 14.126 119.657 15.166 119.657 16.518C119.657 17.922 120.281 19.066 121.529 19.95C122.777 20.782 125.013 21.77 128.237 22.914L132.137 24.318C140.977 27.49 145.371 33.002 145.319 40.854C145.319 45.898 143.447 50.006 139.703 53.178C136.011 56.35 131.279 57.936 125.507 57.936ZM157.812 57V1.62H170.214V57H157.812ZM212.848 57.936C204.268 57.936 197.092 55.206 191.32 49.746C185.6 44.234 182.74 37.422 182.74 29.31C182.74 21.302 185.47 14.542 190.93 9.03C196.442 3.466 203.436 0.683995 211.912 0.683995C221.428 0.683995 228.994 3.83 234.61 10.122L225.874 18.624C222.182 14.672 217.528 12.696 211.912 12.696C207.024 12.696 203.02 14.334 199.9 17.61C196.78 20.834 195.22 24.734 195.22 29.31C195.22 34.094 196.806 38.072 199.978 41.244C203.15 44.364 207.388 45.924 212.692 45.924C217.58 45.924 221.168 45.04 223.456 43.272V35.082H212.614V23.46H235.546V49.746C233.154 52.45 229.956 54.504 225.952 55.908C221.948 57.26 217.58 57.936 212.848 57.936ZM299.248 57H288.562L261.574 22.758V57H249.172V1.62H259.858L286.768 35.862V1.62H299.248V57Z" fill="#FCEB41"/>
</svg>
