<svg width="293" height="48" viewBox="0 0 293 48" fill="none" xmlns="http://www.w3.org/2000/svg">
<path d="M0.812497 47V1.56H16.3005C22.7005 1.56 28.1618 3.77866 32.6845 8.216C37.2072 12.6533 39.4685 18.008 39.4685 24.28C39.4685 30.552 37.2072 35.9067 32.6845 40.344C28.1618 44.7813 22.7005 47 16.3005 47H0.812497ZM10.9885 37.656H16.3005C20.0552 37.656 23.1272 36.376 25.5165 33.816C27.9485 31.2133 29.1645 28.0347 29.1645 24.28C29.1645 20.5253 27.9485 17.368 25.5165 14.808C23.1272 12.2053 20.0552 10.904 16.3005 10.904H10.9885V37.656ZM43.3625 47V1.56H72.1625V11.288H53.5385V19.416H68.3225V29.144H53.5385V37.272H72.1625V47H43.3625ZM90.293 47.768C86.709 47.768 83.445 47.064 80.501 45.656C77.5997 44.2053 75.253 42.2 73.461 39.64L81.269 33.048C82.3783 34.6267 83.7863 35.8853 85.493 36.824C87.2423 37.7627 88.9703 38.232 90.677 38.232C92.341 38.232 93.6637 37.8907 94.645 37.208C95.669 36.4827 96.181 35.5653 96.181 34.456C96.181 33.304 95.6903 32.3013 94.709 31.448C93.7277 30.5947 92.1063 29.784 89.845 29.016L86.645 27.928C79.0077 25.368 75.189 20.9947 75.189 14.808C75.189 10.4987 76.6397 7.08533 79.541 4.568C82.485 2.05066 86.261 0.791996 90.869 0.791996C96.757 0.791996 101.642 2.88266 105.525 7.064L98.869 14.104C96.7783 11.5867 94.1543 10.328 90.997 10.328C89.5037 10.328 88.2023 10.6267 87.093 11.224C86.0263 11.8213 85.493 12.6747 85.493 13.784C85.493 14.936 86.005 15.8747 87.029 16.6C88.053 17.2827 89.8877 18.0933 92.533 19.032L95.733 20.184C102.986 22.7867 106.592 27.3093 106.549 33.752C106.549 37.8907 105.013 41.2613 101.941 43.864C98.9117 46.4667 95.029 47.768 90.293 47.768ZM110.4 47V1.56H120.576V47H110.4ZM149.158 47.768C142.118 47.768 136.23 45.528 131.494 41.048C126.801 36.5253 124.454 30.936 124.454 24.28C124.454 17.7093 126.694 12.1627 131.174 7.64C135.697 3.07466 141.435 0.791996 148.39 0.791996C156.198 0.791996 162.406 3.37333 167.014 8.536L159.846 15.512C156.817 12.2693 152.998 10.648 148.39 10.648C144.379 10.648 141.094 11.992 138.534 14.68C135.974 17.3253 134.694 20.5253 134.694 24.28C134.694 28.2053 135.995 31.4693 138.598 34.072C141.201 36.632 144.678 37.912 149.03 37.912C153.041 37.912 155.985 37.1867 157.862 35.736V29.016H148.966V19.48H167.782V41.048C165.819 43.2667 163.195 44.952 159.91 46.104C156.625 47.2133 153.041 47.768 149.158 47.768ZM213.65 47H204.882L182.738 18.904V47H172.562V1.56H181.33L203.41 29.656V1.56H213.65V47ZM220.05 47V1.56H248.85V11.288H230.226V19.416H245.01V29.144H230.226V37.272H248.85V47H220.05ZM253.413 47V1.56H271.333C275.514 1.56 278.906 2.88266 281.509 5.528C284.111 8.17333 285.413 11.416 285.413 15.256C285.413 20.9733 282.447 24.8773 276.517 26.968L292.581 47H280.357L265.189 28.248H263.589V47H253.413ZM263.589 19.608H270.117C271.653 19.608 272.89 19.2027 273.829 18.392C274.81 17.5813 275.301 16.536 275.301 15.256C275.301 13.8907 274.81 12.824 273.829 12.056C272.89 11.288 271.653 10.904 270.117 10.904H263.589V19.608Z" fill="#FCEB41"/>
</svg>
