<svg width="339" height="48" viewBox="0 0 339 48" fill="none" xmlns="http://www.w3.org/2000/svg">
<path d="M0.131253 47V1.56H15.6193C22.0193 1.56 27.4806 3.77866 32.0033 8.216C36.5259 12.6533 38.7873 18.008 38.7873 24.28C38.7873 30.552 36.5259 35.9067 32.0033 40.344C27.4806 44.7813 22.0193 47 15.6193 47H0.131253ZM10.3073 37.656H15.6193C19.3739 37.656 22.4459 36.376 24.8353 33.816C27.2673 31.2133 28.4833 28.0347 28.4833 24.28C28.4833 20.5253 27.2673 17.368 24.8353 14.808C22.4459 12.2053 19.3739 10.904 15.6193 10.904H10.3073V37.656ZM42.6813 47V1.56H71.4813V11.288H52.8573V19.416H67.6413V29.144H52.8573V37.272H71.4813V47H42.6813ZM89.9318 47L71.3078 1.56H82.3798L94.4758 31.832L106.508 1.56H117.708L99.0838 47H89.9318ZM119.344 47V1.56H148.144V11.288H129.52V19.416H144.304V29.144H129.52V37.272H148.144V47H119.344ZM152.706 47V1.56H162.882V37.272H181.698V47H152.706ZM194.276 33.88C196.879 36.568 200.015 37.912 203.684 37.912C207.354 37.912 210.468 36.568 213.028 33.88C215.588 31.192 216.868 27.992 216.868 24.28C216.868 20.568 215.588 17.368 213.028 14.68C210.468 11.992 207.354 10.648 203.684 10.648C200.015 10.648 196.879 11.992 194.276 14.68C191.716 17.368 190.436 20.568 190.436 24.28C190.436 27.992 191.716 31.192 194.276 33.88ZM220.26 40.856C215.695 45.464 210.17 47.768 203.684 47.768C197.199 47.768 191.652 45.4853 187.044 40.92C182.479 36.312 180.196 30.7653 180.196 24.28C180.196 17.7947 182.479 12.2693 187.044 7.704C191.652 3.096 197.199 0.791996 203.684 0.791996C210.17 0.791996 215.695 3.096 220.26 7.704C224.868 12.312 227.172 17.8373 227.172 24.28C227.172 30.7227 224.868 36.248 220.26 40.856ZM257.81 6.04C260.882 9.02666 262.418 12.7173 262.418 17.112C262.418 21.5067 260.882 25.1973 257.81 28.184C254.78 31.128 250.983 32.6 246.418 32.6H241.17V47H230.994V1.56H246.418C250.983 1.56 254.78 3.05333 257.81 6.04ZM252.562 17.112C252.562 15.4053 251.964 13.9973 250.77 12.888C249.618 11.736 248.124 11.16 246.29 11.16H241.17V23.064H246.29C248.082 23.064 249.575 22.488 250.77 21.336C251.964 20.184 252.562 18.776 252.562 17.112ZM265.731 47V1.56H294.531V11.288H275.907V19.416H290.691V29.144H275.907V37.272H294.531V47H265.731ZM299.094 47V1.56H317.014C321.195 1.56 324.587 2.88266 327.19 5.528C329.792 8.17333 331.094 11.416 331.094 15.256C331.094 20.9733 328.128 24.8773 322.198 26.968L338.262 47H326.038L310.87 28.248H309.27V47H299.094ZM309.27 19.608H315.798C317.334 19.608 318.571 19.2027 319.51 18.392C320.491 17.5813 320.982 16.536 320.982 15.256C320.982 13.8907 320.491 12.824 319.51 12.056C318.571 11.288 317.334 10.904 315.798 10.904H309.27V19.608Z" fill="#FCEB41"/>
</svg>
