<svg width="297" height="58" viewBox="0 0 297 58" fill="none" xmlns="http://www.w3.org/2000/svg">
<path d="M0.249994 57V1.62H19.126C26.926 1.62 33.582 4.324 39.094 9.732C44.606 15.14 47.362 21.666 47.362 29.31C47.362 36.954 44.606 43.48 39.094 48.888C33.582 54.296 26.926 57 19.126 57H0.249994ZM12.652 45.612H19.126C23.702 45.612 27.446 44.052 30.358 40.932C33.322 37.76 34.804 33.886 34.804 29.31C34.804 24.734 33.322 20.886 30.358 17.766C27.446 14.594 23.702 13.008 19.126 13.008H12.652V45.612ZM48.2078 57V1.62H83.3078V13.476H60.6098V23.382H78.6278V35.238H60.6098V45.144H83.3078V57H48.2078ZM101.894 57L79.1964 1.62H92.6904L107.432 38.514L122.096 1.62H135.746L113.048 57H101.894ZM133.84 57V1.62H168.94V13.476H146.242V23.382H164.26V35.238H146.242V45.144H168.94V57H133.84ZM170.601 57V1.62H183.003V45.144H205.935V57H170.601ZM217.364 41.01C220.536 44.286 224.358 45.924 228.83 45.924C233.302 45.924 237.098 44.286 240.218 41.01C243.338 37.734 244.898 33.834 244.898 29.31C244.898 24.786 243.338 20.886 240.218 17.61C237.098 14.334 233.302 12.696 228.83 12.696C224.358 12.696 220.536 14.334 217.364 17.61C214.244 20.886 212.684 24.786 212.684 29.31C212.684 33.834 214.244 37.734 217.364 41.01ZM249.032 49.512C243.468 55.128 236.734 57.936 228.83 57.936C220.926 57.936 214.166 55.154 208.55 49.59C202.986 43.974 200.204 37.214 200.204 29.31C200.204 21.406 202.986 14.672 208.55 9.108C214.166 3.492 220.926 0.683995 228.83 0.683995C236.734 0.683995 243.468 3.492 249.032 9.108C254.648 14.724 257.456 21.458 257.456 29.31C257.456 37.162 254.648 43.896 249.032 49.512ZM290.896 7.08C294.64 10.72 296.512 15.218 296.512 20.574C296.512 25.93 294.64 30.428 290.896 34.068C287.204 37.656 282.576 39.45 277.012 39.45H270.616V57H258.214V1.62H277.012C282.576 1.62 287.204 3.44 290.896 7.08ZM284.5 20.574C284.5 18.494 283.772 16.778 282.316 15.426C280.912 14.022 279.092 13.32 276.856 13.32H270.616V27.828H276.856C279.04 27.828 280.86 27.126 282.316 25.722C283.772 24.318 284.5 22.602 284.5 20.574Z" fill="#FCEB41"/>
</svg>
