<svg width="21" height="21" viewBox="0 0 21 21" fill="none" xmlns="http://www.w3.org/2000/svg">
<path d="M12.9628 15C12.8191 15 12.6813 14.9435 12.5796 14.8429C12.478 14.7423 12.421 14.6059 12.421 14.4637L12.421 12.8486C12.4378 12.6882 12.4205 12.5261 12.3701 12.3727C12.3197 12.2194 12.2374 12.0782 12.1284 11.9583C12.061 11.8859 12.015 11.7965 11.9955 11.6999C11.976 11.6033 11.9837 11.5033 12.0178 11.4108C12.052 11.3182 12.1112 11.2368 12.189 11.1754C12.2668 11.114 12.3602 11.075 12.4589 11.0627C13.7809 10.9072 15 10.4889 15 8.22032C15.0004 7.79669 14.8741 7.38242 14.637 7.02975C14.4182 6.70509 14.3383 6.30782 14.4148 5.92498C14.4637 5.67524 14.4637 5.24974 14.4148 5C14.0091 5.13578 13.6272 5.50177 13.2825 5.75336C13.2173 5.79917 13.1427 5.83014 13.064 5.84405C12.9853 5.85796 12.9045 5.85446 12.8274 5.83381C11.8496 5.56033 10.8144 5.56033 9.83658 5.83381C9.75943 5.85446 9.67861 5.85796 9.59992 5.84405C9.52124 5.83014 9.44663 5.79917 9.38147 5.75336C9.03467 5.49886 8.64863 5.13266 8.23825 5C8.18673 5.24948 8.18673 5.6755 8.23825 5.92498C8.30928 6.31264 8.22577 6.71246 8.00528 7.04047C7.76919 7.39562 7.64302 7.81128 7.64226 8.23641C7.64226 10.3226 8.66086 10.8803 10.1888 11.0734C10.2887 11.0857 10.3833 11.1253 10.4618 11.1878C10.5402 11.2504 10.5996 11.3333 10.633 11.4274C10.6645 11.5186 10.6706 11.6166 10.6506 11.711C10.6306 11.8054 10.5852 11.8927 10.5193 11.9637C10.4139 12.0752 10.333 12.2071 10.2817 12.3511C10.2304 12.4951 10.2098 12.648 10.2213 12.8003L10.2212 14.4637C10.2212 14.6059 10.1641 14.7423 10.0625 14.8429C9.96092 14.9435 9.82311 15 9.67942 15M6 12.0837C6.01779 12.0154 6.049 11.9512 6.09184 11.8949C6.13469 11.8385 6.18833 11.791 6.24971 11.7552C6.31109 11.7193 6.379 11.6958 6.44957 11.6859C6.52014 11.676 6.59199 11.68 6.661 11.6976C7.07779 11.8479 7.61071 12.0443 7.90512 12.3727C8.44693 12.909 8.98874 13.3809 10.0182 13.1879" stroke="#DDDFE4" stroke-width="1.5"/>
</svg>
