<svg width="44" height="44" viewBox="0 0 44 44" fill="none" xmlns="http://www.w3.org/2000/svg">
<path d="M26.4708 33.0589C26.1504 33.0589 25.843 32.936 25.6164 32.7172C25.3898 32.4984 25.2625 32.2016 25.2625 31.8922L25.2626 28.3786C25.3001 28.0297 25.2615 27.677 25.1491 27.3434C25.0367 27.0098 24.8531 26.7027 24.6101 26.4419C24.4597 26.2844 24.3571 26.0899 24.3136 25.8798C24.27 25.6697 24.2873 25.452 24.3635 25.2508C24.4396 25.0495 24.5717 24.8724 24.7452 24.7388C24.9187 24.6052 25.127 24.5204 25.3472 24.4936C28.2955 24.1552 31.0143 23.2452 31.0143 18.3102C31.0153 17.3887 30.7336 16.4874 30.2047 15.7202C29.7167 15.014 29.5386 14.1497 29.7093 13.3169C29.8182 12.7736 29.8182 11.848 29.7093 11.3047C28.8045 11.6001 27.9526 12.3963 27.1839 12.9436C27.0385 13.0432 26.8721 13.1106 26.6967 13.1408C26.5212 13.1711 26.3409 13.1635 26.1689 13.1186C23.9882 12.5236 21.6795 12.5236 19.4988 13.1186C19.3267 13.1635 19.1465 13.1711 18.971 13.1408C18.7955 13.1106 18.6291 13.0432 18.4838 12.9436C17.7104 12.3899 16.8494 11.5933 15.9342 11.3047C15.8193 11.8474 15.8193 12.7742 15.9342 13.3169C16.0926 14.1602 15.9063 15.03 15.4146 15.7436C14.8881 16.5162 14.6067 17.4204 14.605 18.3452C14.605 22.8836 16.8767 24.0969 20.2842 24.5169C20.5072 24.5436 20.718 24.6298 20.8931 24.7658C21.0681 24.9019 21.2004 25.0823 21.2751 25.2869C21.3453 25.4854 21.3588 25.6986 21.3142 25.9039C21.2695 26.1092 21.1683 26.2991 21.0213 26.4536C20.7863 26.6961 20.6059 26.9831 20.4915 27.2963C20.3771 27.6096 20.3312 27.9423 20.3567 28.2736L20.3566 31.8922C20.3566 32.2016 20.2293 32.4984 20.0027 32.7172C19.7761 32.936 19.4687 33.0589 19.1483 33.0589M10.9424 26.7148C10.9821 26.5662 11.0517 26.4266 11.1472 26.3039C11.2428 26.1813 11.3624 26.078 11.4993 26C11.6362 25.922 11.7876 25.8708 11.945 25.8493C12.1024 25.8278 12.2626 25.8365 12.4166 25.8748C13.3461 26.2017 14.5346 26.629 15.1912 27.3434C16.3996 28.5101 17.6079 29.5368 19.9038 29.1168" stroke="#FCEB41" stroke-width="2"/>
</svg>
