<svg width="284" height="58" viewBox="0 0 284 58" fill="none" xmlns="http://www.w3.org/2000/svg">
<path d="M0.101563 57V0.199997H12.8216V22.44H35.7016V0.199997H48.4216V57H35.7016V34.52H12.8216V57H0.101563ZM95.9341 51.56C91.6141 55.8267 86.0141 57.96 79.1341 57.96C72.2541 57.96 66.6274 55.8267 62.2541 51.56C57.9341 47.24 55.7741 41.56 55.7741 34.52V0.199997H68.4941V34.68C68.4941 38.04 69.4541 40.7067 71.3741 42.68C73.3474 44.6533 75.9341 45.64 79.1341 45.64C82.3341 45.64 84.8941 44.6533 86.8141 42.68C88.7874 40.7067 89.7741 38.04 89.7741 34.68V0.199997H102.494V34.52C102.494 41.56 100.307 47.24 95.9341 51.56ZM109.836 0.199997H121.436L139.116 24.68L156.956 0.199997H168.556V57H155.756V22.04L139.196 44.92L122.556 21.96V57H109.836V0.199997ZM170.459 57L194.779 0.199997H206.299L230.619 57H217.339L212.299 45H188.779L183.739 57H170.459ZM200.539 16.92L193.339 33.96H207.659L200.539 16.92ZM283.899 57H272.939L245.259 21.88V57H232.539V0.199997H243.499L271.099 35.32V0.199997H283.899V57Z" fill="#FCEB41"/>
</svg>
