<svg width="44" height="44" viewBox="0 0 44 44" fill="none" xmlns="http://www.w3.org/2000/svg">
<path d="M17.4442 16C16.646 16 16 16.6468 16 17.4442C16 18.2416 16.6451 18.8884 17.4442 18.8884C18.2408 18.8884 18.8884 18.2416 18.8884 17.4442C18.8884 16.6476 18.2408 16 17.4442 16ZM25.0328 19.8337C23.827 19.8337 23.0269 20.4935 22.6958 21.1203H22.6433V20.0175H20.2801V28H22.7484V24.0613C22.7484 23.021 22.9553 22.0131 24.2451 22.0131C25.5164 22.0131 25.5317 23.1887 25.5317 24.1138V28H28V23.6149C28 21.4672 27.5427 19.8337 25.0328 19.8337ZM16.2363 20.0175V28H18.7309V20.0175H16.2363Z" fill="#DDDFE4"/>
<path d="M11 12.7273C11 11.786 11.786 11 12.7273 11H31.2727C32.214 11 33 11.786 33 12.7273V31.2727C33 32.214 32.214 33 31.2727 33H12.7273C11.786 33 11 32.214 11 31.2727V12.7273Z" stroke="#DDDFE4" stroke-width="2"/>
</svg>
