<svg width="26" height="26" viewBox="0 0 26 26" fill="none" xmlns="http://www.w3.org/2000/svg">
<path d="M11.4901 9.45459C11.0184 9.45459 10.6367 9.83679 10.6367 10.308C10.6367 10.7792 11.0179 11.1614 11.4901 11.1614C11.9608 11.1614 12.3435 10.7792 12.3435 10.308C12.3435 9.83728 11.9608 9.45459 11.4901 9.45459ZM15.9743 11.72C15.2618 11.72 14.789 12.1098 14.5934 12.4803H14.5623V11.8286H13.1659V16.5455H14.6244V14.2181C14.6244 13.6034 14.7467 13.0078 15.5088 13.0078C16.26 13.0078 16.2691 13.7024 16.2691 14.2491V16.5455H17.7276V13.9543C17.7276 12.6852 17.4574 11.72 15.9743 11.72ZM10.7764 11.8286V16.5455H12.2504V11.8286H10.7764Z" fill="#DDDFE4"/>
<path d="M7.84082 7.61157C7.84082 7.14325 8.23407 6.75 8.70239 6.75H19.3884C19.8568 6.75 20.25 7.14325 20.25 7.61157V18.4794C20.25 18.9478 19.8568 19.341 19.3884 19.341H8.70239C8.23407 19.341 7.84082 18.9478 7.84082 18.4794V7.61157Z" stroke="#DDDFE4" stroke-width="1.5"/>
</svg>
