<svg width="296" height="148" viewBox="0 0 296 148" fill="none" xmlns="http://www.w3.org/2000/svg">
<path d="M60.3827 8.22336C64.7824 12.5098 66.9822 17.8065 66.9822 24.1137C66.9822 30.4208 64.7824 35.7176 60.3827 40.004C56.0441 44.2292 50.6056 46.3418 44.0672 46.3418H36.551V67.0084H21.977V1.79375H44.0672C50.6056 1.79375 56.0441 3.93695 60.3827 8.22336ZM52.8666 24.1137C52.8666 21.6643 52.0111 19.6436 50.3001 18.0515C48.6502 16.3982 46.5114 15.5715 43.8838 15.5715H36.551V32.6559H43.8838C46.4503 32.6559 48.5891 31.8292 50.3001 30.1759C52.0111 28.5226 52.8666 26.5018 52.8666 24.1137Z" fill="#26292E"/>
<path d="M100.601 48.1788C104.328 52.0366 108.82 53.9655 114.075 53.9655C119.33 53.9655 123.791 52.0366 127.457 48.1788C131.124 44.3211 132.957 39.7285 132.957 34.4011C132.957 29.0737 131.124 24.4811 127.457 20.6233C123.791 16.7656 119.33 14.8367 114.075 14.8367C108.82 14.8367 104.328 16.7656 100.601 20.6233C96.9344 24.4811 95.1012 29.0737 95.1012 34.4011C95.1012 39.7285 96.9344 44.3211 100.601 48.1788ZM137.815 58.1906C131.277 64.804 123.363 68.1106 114.075 68.1106C104.787 68.1106 96.8428 64.8346 90.2432 58.2825C83.7048 51.6692 80.4355 43.7087 80.4355 34.4011C80.4355 25.0934 83.7048 17.1636 90.2432 10.6115C96.8428 3.99819 104.787 0.691528 114.075 0.691528C123.363 0.691528 131.277 3.99819 137.815 10.6115C144.414 17.2248 147.714 25.1547 147.714 34.4011C147.714 43.6475 144.414 51.5773 137.815 58.1906Z" fill="#26292E"/>
<path d="M165.562 67.0084V1.79375H191.226C197.215 1.79375 202.073 3.69202 205.8 7.48855C209.528 11.2851 211.392 15.9389 211.392 21.45C211.392 29.6554 207.145 35.2584 198.651 38.2588L221.658 67.0084H204.151L182.427 40.0959H180.136V67.0084H165.562ZM180.136 27.6959H189.485C191.685 27.6959 193.457 27.1142 194.801 25.9507C196.207 24.7873 196.909 23.287 196.909 21.45C196.909 19.4905 196.207 17.9596 194.801 16.8574C193.457 15.7552 191.685 15.2041 189.485 15.2041H180.136V27.6959Z" fill="#26292E"/>
<path d="M243.716 67.0084V15.7552H227.125V1.79375H275.155V15.7552H258.381V67.0084H243.716Z" fill="#26292E"/>
<path d="M0 146.218V81.0035H40.0556V94.9649H14.574V106.722H34.4643V120.683H14.574V146.218H0Z" fill="#26292E"/>
<path d="M72.9846 127.389C76.7121 131.246 81.2035 133.175 86.4586 133.175C91.7138 133.175 96.1747 131.246 99.8411 127.389C103.507 123.531 105.341 118.938 105.341 113.611C105.341 108.283 103.507 103.691 99.8411 99.8331C96.1747 95.9753 91.7138 94.0464 86.4586 94.0464C81.2035 94.0464 76.7121 95.9753 72.9846 99.8331C69.3182 103.691 67.485 108.283 67.485 113.611C67.485 118.938 69.3182 123.531 72.9846 127.389ZM110.199 137.4C103.66 144.014 95.7469 147.32 86.4586 147.32C77.1704 147.32 69.2265 144.044 62.627 137.492C56.0885 130.879 52.8193 122.918 52.8193 113.611C52.8193 104.303 56.0885 96.3733 62.627 89.8212C69.2265 83.2079 77.1704 79.9013 86.4586 79.9013C95.7469 79.9013 103.66 83.2079 110.199 89.8212C116.798 96.4346 120.098 104.364 120.098 113.611C120.098 122.857 116.798 130.787 110.199 137.4Z" fill="#26292E"/>
<path d="M137.945 146.218V81.0035H152.519V132.257H179.467V146.218H137.945Z" fill="#26292E"/>
<path d="M196.311 146.218V81.0035H210.885V146.218H196.311Z" fill="#26292E"/>
<path d="M248.887 127.389C252.614 131.246 257.105 133.175 262.361 133.175C267.616 133.175 272.077 131.246 275.743 127.389C279.409 123.531 281.243 118.938 281.243 113.611C281.243 108.283 279.409 103.691 275.743 99.8331C272.077 95.9753 267.616 94.0464 262.361 94.0464C257.105 94.0464 252.614 95.9753 248.887 99.8331C245.22 103.691 243.387 108.283 243.387 113.611C243.387 118.938 245.22 123.531 248.887 127.389ZM286.101 137.4C279.562 144.014 271.649 147.32 262.361 147.32C253.072 147.32 245.128 144.044 238.529 137.492C231.99 130.879 228.721 122.918 228.721 113.611C228.721 104.303 231.99 96.3733 238.529 89.8212C245.128 83.2079 253.072 79.9013 262.361 79.9013C271.649 79.9013 279.562 83.2079 286.101 89.8212C292.7 96.4346 296 104.364 296 113.611C296 122.857 292.7 130.787 286.101 137.4Z" fill="#26292E"/>
</svg>
