<svg width="44" height="44" viewBox="0 0 44 44" fill="none" xmlns="http://www.w3.org/2000/svg">
<path d="M16.6 20.2003C16.6 19.2061 15.7942 18.4003 14.8 18.4003C13.8058 18.4003 13 19.2061 13 20.2003V26.2003C13 31.1707 17.0296 35.2003 22 35.2003C26.9704 35.2003 31 31.1707 31 26.2003V21.4003C31 20.4061 30.1942 19.6003 29.2 19.6003C28.2058 19.6003 27.4 20.4061 27.4 21.4003V20.2003C27.4 19.2061 26.5942 18.4003 25.6 18.4003C24.6058 18.4003 23.8 19.2061 23.8 20.2003V19.0003C23.8 18.0061 22.9942 17.2003 22 17.2003C21.0058 17.2003 20.2 18.0061 20.2 19.0003V10.6003C20.2 9.60609 19.3942 8.80029 18.4 8.80029C17.4058 8.80029 16.6 9.60609 16.6 10.6003V24.4003V20.2003Z" stroke="#DDDFE4" stroke-width="2" stroke-miterlimit="10" stroke-linecap="round" stroke-linejoin="round"/>
<path d="M29.7998 16.6002V8.2002" stroke="#DDDFE4" stroke-width="2" stroke-miterlimit="10" stroke-linecap="round" stroke-linejoin="round"/>
<path d="M31.6 14.8003L29.8 16.6003L28 14.8003" stroke="#DDDFE4" stroke-width="2" stroke-miterlimit="10" stroke-linecap="round" stroke-linejoin="round"/>
<path d="M31.6 10.0002L29.8 8.2002L28 10.0002" stroke="#DDDFE4" stroke-width="2" stroke-miterlimit="10" stroke-linecap="round" stroke-linejoin="round"/>
</svg>
