<svg width="44" height="44" viewBox="0 0 44 44" fill="none" xmlns="http://www.w3.org/2000/svg">
<path d="M32.292 26.8335C32.292 30.6047 32.292 32.4904 31.1204 33.6619C29.9488 34.8335 28.0632 34.8335 24.292 34.8335L18.7087 34.8335C14.9374 34.8335 13.0518 34.8335 11.8802 33.6619C10.7087 32.4904 10.7087 30.6047 10.7087 26.8335L10.7087 19.4168C10.7087 14.9251 10.7087 12.6793 11.8507 11.1037C12.2228 10.5904 12.6739 10.1393 13.1872 9.76721C14.7628 8.62516 17.0086 8.62516 21.5003 8.62516V8.62516C25.992 8.62516 28.2379 8.62516 29.8134 9.76721C30.3267 10.1393 30.7778 10.5904 31.1499 11.1037C32.292 12.6793 32.292 14.9251 32.292 19.4168L32.292 26.8335Z" stroke="#DDDFE4" stroke-width="2" stroke-linejoin="round"/>
<path d="M21.5 34.8335L21.5 27.1252" stroke="#DDDFE4" stroke-width="2" stroke-linecap="round" stroke-linejoin="round"/>
</svg>
